# xmcd
#
# Track frame offsets:
#	150
#	12759
#	28386
#	47567
#	63064
#	75547
#	90121
#	105506
#	116352
#	131942
#	151787
#	167375
#
# Disc length: 2511 seconds
# Revision: 0
# Processed by: cddbd v1.5.2PL0 Copyright (c) Steve Scherf et al.
# Submitted via: dBpowerAMP V12.0
#
DISCID=7d09cd0c
DTITLE=The Gibson Brothers - Help My Brother
DYEAR=2011
DGENRE=Bluegrass
TTITLE0=Help My Brother
TTITLE1=Walking West To Memphis
TTITLE2=Dixie
TTITLE3=Frozen In Time
TTITLE4=He Can Be Found
TTITLE5=Singing As We Rise
TTITLE6=Want Vs. Need
TTITLE7=I'll Love Nobody But You
TTITLE8=Just Lovin' You
TTITLE9=Talk To Me
TTITLE10=One Car Funeral
TTITLE11=Safe Passage
EXTD=
EXTT0=
EXTT1=
EXTT2=
EXTT3=
EXTT4=
EXTT5=
EXTT6=
EXTT7=
EXTT8=
EXTT9=
EXTT10=
EXTT11=
PLAYORDER=
